<svg xmlns="http://www.w3.org/2000/svg" width="24.756" height="24.756" viewBox="0 0 24.756 24.756"><path d="M20.4,0H0V21.855a2.9,2.9,0,0,0,2.9,2.9H21.855a2.9,2.9,0,0,0,2.9-2.9v-10.2H20.4ZM2.9,23.306a1.452,1.452,0,0,1-1.451-1.451V1.451h17.5v20.4a2.883,2.883,0,0,0,.39,1.451Zm20.4-10.2v8.752a1.451,1.451,0,1,1-2.9,0V13.1Zm0,0"/><path d="M60,65.851H74.6V60H60Zm1.451-4.4h11.7V64.4h-11.7Zm0,0" transform="translate(-57.099 -57.099)"/><path d="M60,211h7.3v1.451H60Zm0,0" transform="translate(-57.099 -200.798)"/><path d="M241,211h5.851v1.451H241Zm0,0" transform="translate(-229.347 -200.798)"/><path d="M60,271h7.3v1.451H60Zm0,0" transform="translate(-57.099 -257.897)"/><path d="M241,271h5.851v1.451H241Zm0,0" transform="translate(-229.347 -257.897)"/><path d="M60,331h7.3v1.451H60Zm0,0" transform="translate(-57.099 -314.996)"/><path d="M60,391h7.3v1.451H60Zm0,0" transform="translate(-57.099 -372.094)"/><path d="M241,335.352h5.851V331H241Zm1.451-2.9H245.4V333.9h-2.949Zm0,0" transform="translate(-229.347 -314.996)"/></svg>