<svg xmlns="http://www.w3.org/2000/svg" width="19.609" height="23.24" viewBox="0 0 19.609 23.24"><g transform="translate(-39.996)"><path d="M126.03,79.413a.726.726,0,0,0-1.027,0l-1.359,1.359a6.562,6.562,0,0,1-2.568-2.568l1.359-1.359a.726.726,0,0,0,0-1.027l-2.825-2.825a.726.726,0,0,0-1.027,0l-1.541,1.541c-.764.764-.857,2.036-.263,3.581,1.712,4.452,8.128,9.1,10.534,6.69l1.541-1.541a.726.726,0,0,0,0-1.027Zm.257,4.365c-.319.319-1.1.294-2.032-.065a12.259,12.259,0,0,1-6.119-6.119c-.359-.934-.384-1.713-.065-2.032l1.027-1.027,1.8,1.8-1.027,1.027c-.274.274-.489.8.042,1.756.779,1.4,3.439,4.007,4.58,2.866l1.027-1.027,1.8,1.8Z" transform="translate(-72.93 -69.478)" fill="#fff"/><path d="M55.611,0H43.99A4,4,0,0,0,40,3.994v11.62a4,4,0,0,0,3.994,3.994h3.22l1.967,3.279a.727.727,0,0,0,1.246,0l1.967-3.279h3.22a4,4,0,0,0,3.994-3.994V3.994A4,4,0,0,0,55.611,0Zm2.542,15.615a2.545,2.545,0,0,1-2.542,2.542H51.979a.726.726,0,0,0-.623.353L49.8,21.1l-1.556-2.593a.726.726,0,0,0-.623-.353H43.99a2.545,2.545,0,0,1-2.542-2.542V3.994A2.545,2.545,0,0,1,43.99,1.453h11.62a2.545,2.545,0,0,1,2.542,2.542Z" fill="#fff"/></g></svg>