<svg xmlns="http://www.w3.org/2000/svg" width="24.187" height="24.756" viewBox="0 0 24.187 24.756">
  <g id="calendar" transform="translate(0)">
    <path id="Path_405" data-name="Path 405" d="M194.489,281.583a.731.731,0,0,0,1.034,0l2.61-2.61a.731.731,0,1,0-1.034-1.034l-2.093,2.093-.954-.954a.731.731,0,0,0-1.034,1.034Zm0,0" transform="translate(-183.481 -264.297)"/>
    <path id="Path_406" data-name="Path 406" d="M135.908,211.422a5.8,5.8,0,1,0-5.8-5.8A5.809,5.809,0,0,0,135.908,211.422Zm0-10.144a4.341,4.341,0,1,1-4.341,4.341,4.346,4.346,0,0,1,4.341-4.341Zm0,0" transform="translate(-123.814 -190.155)"/>
    <path id="Path_407" data-name="Path 407" d="M21.823,1.556H20.49V.731a.731.731,0,1,0-1.462,0v.826H17.591V.731a.731.731,0,0,0-1.462,0v.826H8.058V.731A.731.731,0,0,0,6.6.731v.826H5.159V.731A.731.731,0,0,0,3.7.731v.826H2.364A2.367,2.367,0,0,0,0,3.921V22.392a2.367,2.367,0,0,0,2.364,2.364H21.823a2.367,2.367,0,0,0,2.364-2.364V3.921a2.367,2.367,0,0,0-2.364-2.364Zm.9,20.835a.9.9,0,0,1-.9.9H2.364a.9.9,0,0,1-.9-.9V7.635H22.725ZM1.462,3.921a.9.9,0,0,1,.9-.9H3.7v.826a.731.731,0,0,0,1.462,0V3.019H6.6v.826a.731.731,0,0,0,1.462,0V3.019h8.072v.826a.731.731,0,0,0,1.462,0V3.019h1.436v.826a.731.731,0,0,0,1.462,0V3.019h1.333a.9.9,0,0,1,.9.9V6.173H1.462Zm0,0"/>
  </g>
</svg>
