<svg xmlns="http://www.w3.org/2000/svg" width="26.183" height="26.283" viewBox="0 0 26.183 26.283">
  <path id="meditation_2_" data-name="meditation (2)" d="M25.186,19.844a3.861,3.861,0,0,0-2.858-1.269,5.629,5.629,0,0,0-1.139.183l-.036.009-.027.01V13.486a5.054,5.054,0,0,0-4.466-5.013,4.99,4.99,0,1,0-7.138,0,5.054,5.054,0,0,0-4.466,5.013v5.292l-.027-.01-.036-.009a5.632,5.632,0,0,0-1.139-.183A3.854,3.854,0,0,0,.018,22.824a3.733,3.733,0,0,0,1.351,2.5,4.162,4.162,0,0,0,2.659.959H22.152a4.162,4.162,0,0,0,2.659-.959,3.733,3.733,0,0,0,1.351-2.5,3.872,3.872,0,0,0-.976-2.98ZM13.09,1.54a3.45,3.45,0,1,1-3.45,3.45,3.454,3.454,0,0,1,3.45-3.45Zm-6.5,11.946A3.511,3.511,0,0,1,10.1,9.98h5.978a3.511,3.511,0,0,1,3.507,3.507v5.853l-2.321.846V13.907h-1.54v6.84l-2.634.96-2.634-.96v-6.84H8.916v6.279l-2.321-.846ZM1.551,22.67a2.314,2.314,0,0,1,2.3-2.555,4.156,4.156,0,0,1,.719.126l7.749,2.825v1.677H4.028A2.434,2.434,0,0,1,1.551,22.67Zm23.079,0a2.434,2.434,0,0,1-2.477,2.072H13.86V23.066l7.749-2.825a4.266,4.266,0,0,1,.719-.126,2.314,2.314,0,0,1,2.3,2.555Zm0,0" transform="translate(0.001 0)"/>
</svg>
