<svg xmlns="http://www.w3.org/2000/svg" width="26" height="24.374" viewBox="0 0 26 24.374"><g transform="translate(0 -16.017)"><path d="M59.6,207.4H42.336A2.339,2.339,0,0,1,40,205.066v-12.29a.813.813,0,0,1,1.625,0v12.29a.712.712,0,0,0,.711.711H59.6a.712.712,0,0,0,.711-.711v-12.29a.813.813,0,1,1,1.625,0v12.29A2.339,2.339,0,0,1,59.6,207.4Z" transform="translate(-37.969 -167.011)"/><path d="M25.188,28.608a.81.81,0,0,1-.574-.238L14.509,18.265a2.135,2.135,0,0,0-3.016,0L1.387,28.37A.813.813,0,0,1,.238,27.221L10.343,17.116a3.762,3.762,0,0,1,5.314,0L25.763,27.221a.813.813,0,0,1-.574,1.387Z"/><path d="M183.313,298.546h-6.5a.813.813,0,0,1-.813-.812v-7.211a2.542,2.542,0,0,1,2.539-2.539h3.047a2.542,2.542,0,0,1,2.539,2.539v7.211A.813.813,0,0,1,183.313,298.546Zm-5.688-1.625H182.5v-6.4a.915.915,0,0,0-.914-.914h-3.047a.915.915,0,0,0-.914.914Z" transform="translate(-167.062 -258.155)"/></g></svg>