<svg xmlns="http://www.w3.org/2000/svg" width="24.348" height="24.756" viewBox="0 0 24.348 24.756"><g transform="translate(-2.4 3.5)"><g transform="translate(7.308 8.35)"><path d="M107.2,246h.816v.816H107.2Z" transform="translate(-107.08 -245.88)"/><path d="M105.636,244.556h-.816a.119.119,0,0,1-.12-.12v-.816a.119.119,0,0,1,.12-.12h.816a.119.119,0,0,1,.12.12v.816A.119.119,0,0,1,105.636,244.556Zm-.7-.24h.576v-.576h-.576Z" transform="translate(-104.7 -243.5)"/></g><g transform="translate(21.202 8.35)"><path d="M396.8,246h.816v.816H396.8Z" transform="translate(-396.68 -245.88)"/><path d="M395.236,244.556h-.816a.119.119,0,0,1-.12-.12v-.816a.119.119,0,0,1,.12-.12h.816a.119.119,0,0,1,.12.12v.816A.119.119,0,0,1,395.236,244.556Zm-.7-.24h.576v-.576h-.576Z" transform="translate(-394.3 -243.5)"/></g><g transform="translate(7.308 -3.5)"><path d="M108.016,3.088H121.91V1.044A2.046,2.046,0,0,0,119.866-1H109.244A2.045,2.045,0,0,0,107.2,1.044V3.5h.816Zm1.228-3.272h10.622a1.223,1.223,0,0,1,1.223,1.228V2.267H108.016V1.044A1.231,1.231,0,0,1,109.244-.184Z" transform="translate(-107.08 1.12)"/><path d="M105.636,1.235h-.816a.119.119,0,0,1-.12-.12V-1.336A2.17,2.17,0,0,1,106.864-3.5h10.622a2.17,2.17,0,0,1,2.164,2.164V.708a.119.119,0,0,1-.12.12H105.755v.288A.119.119,0,0,1,105.636,1.235Zm-.7-.24h.576V.708a.119.119,0,0,1,.12-.12H119.41V-1.336a1.927,1.927,0,0,0-1.924-1.924H106.864a1.927,1.927,0,0,0-1.924,1.924ZM118.714.007H105.636a.119.119,0,0,1-.12-.12V-1.336a1.349,1.349,0,0,1,1.348-1.348h10.622a1.345,1.345,0,0,1,1.343,1.348V-.113A.115.115,0,0,1,118.714.007Zm-12.959-.24h12.834v-1.1a1.108,1.108,0,0,0-1.1-1.108H106.864a1.109,1.109,0,0,0-1.108,1.108Z" transform="translate(-104.7 3.5)"/></g><g transform="translate(13.847 18.565)"><path d="M244.723,458.9h-.816a.408.408,0,1,0,0,.816h.816a.408.408,0,1,0,0-.816Z" transform="translate(-243.38 -458.78)"/><path d="M242.343,457.455h-.816a.528.528,0,1,1,0-1.055h.816a.528.528,0,1,1,0,1.055Zm-.816-.816a.288.288,0,1,0,0,.576h.816a.288.288,0,0,0,0-.576Z" transform="translate(-241 -456.4)"/></g><g transform="translate(7.308 16.521)"><path d="M108.016,416.708V416.3H107.2v2.452a2.045,2.045,0,0,0,2.044,2.044h10.622a2.045,2.045,0,0,0,2.044-2.044v-2.044Zm11.85,3.272H109.244a1.227,1.227,0,0,1-1.228-1.228v-1.228h13.074v1.228A1.223,1.223,0,0,1,119.866,419.98Z" transform="translate(-107.08 -416.18)"/><path d="M106.864,418.535a2.17,2.17,0,0,1-2.164-2.164V413.92a.119.119,0,0,1,.12-.12h.816a.119.119,0,0,1,.12.12v.288H119.53a.119.119,0,0,1,.12.12v2.044a2.17,2.17,0,0,1-2.164,2.164Zm-1.924-4.5v2.332a1.927,1.927,0,0,0,1.924,1.924h10.622a1.927,1.927,0,0,0,1.924-1.924v-1.924H105.636a.119.119,0,0,1-.12-.12v-.288Zm12.546,3.68H106.864a1.349,1.349,0,0,1-1.348-1.348v-1.228a.119.119,0,0,1,.12-.12h13.074a.119.119,0,0,1,.12.12v1.228A1.342,1.342,0,0,1,117.486,417.72Zm-11.73-2.452v1.108a1.109,1.109,0,0,0,1.108,1.108h10.622a1.1,1.1,0,0,0,1.1-1.108v-1.108Z" transform="translate(-104.7 -413.8)"/></g><g transform="translate(9.352 -1.864)"><path d="M150.208,33.916h.816a.408.408,0,0,0,0-.816h-.816a.408.408,0,1,0,0,.816Z" transform="translate(-149.68 -32.98)"/><path d="M148.643,31.655h-.816a.528.528,0,0,1,0-1.055h.816a.528.528,0,0,1,0,1.055Zm-.816-.816a.288.288,0,0,0,0,.576h.816a.288.288,0,0,0,0-.576Z" transform="translate(-147.3 -30.6)"/></g><g transform="translate(11.803 -1.864)"><path d="M201.308,33.916h2.452a.408.408,0,0,0,0-.816h-2.452a.408.408,0,1,0,0,.816Z" transform="translate(-200.78 -32.98)"/><path d="M201.379,31.655h-2.452a.528.528,0,0,1,0-1.055h2.452a.528.528,0,0,1,0,1.055Zm-2.452-.816a.288.288,0,0,0,0,.576h2.452a.288.288,0,1,0,0-.576Z" transform="translate(-198.4 -30.6)"/></g><g transform="translate(10.575 4.67)"><path d="M175.3,173.388a4.088,4.088,0,1,0,4.088-4.088A4.088,4.088,0,0,0,175.3,173.388Zm7.355,0a3.267,3.267,0,1,1-3.267-3.267A3.268,3.268,0,0,1,182.655,173.388Z" transform="translate(-175.18 -169.18)"/><path d="M177.008,175.215a4.213,4.213,0,0,1-4.208-4.208h0a4.208,4.208,0,1,1,4.208,4.208Zm-3.968-4.208a3.968,3.968,0,1,0,3.968-3.968,3.972,3.972,0,0,0-3.968,3.968Zm3.968,3.387a3.387,3.387,0,1,1,3.387-3.387h0A3.393,3.393,0,0,1,177.008,174.395Zm0-6.534a3.147,3.147,0,1,0,3.147,3.147A3.149,3.149,0,0,0,177.008,167.86Z" transform="translate(-172.8 -166.8)"/></g><g transform="translate(13.032 5.899)"><path d="M227.316,196.028v.816h-.408a.408.408,0,1,0,0,.816h.408v2.452a.408.408,0,1,0,.816,0v-2.452h.408a.408.408,0,1,0,0-.816h-.408v-.816a.408.408,0,1,1,.816,0,.408.408,0,0,0,.816,0,1.223,1.223,0,1,0-2.447,0Z" transform="translate(-226.38 -194.685)"/><path d="M225.343,198.359a.526.526,0,0,1-.528-.528V195.5h-.288a.528.528,0,0,1,0-1.056h.288v-.7a1.346,1.346,0,1,1,2.692,0,.528.528,0,1,1-1.056,0,.288.288,0,0,0-.576,0v.7h.288a.528.528,0,1,1,0,1.056h-.288v2.332A.537.537,0,0,1,225.343,198.359Zm-.82-3.675a.288.288,0,1,0,0,.576h.408a.119.119,0,0,1,.12.12v2.452a.288.288,0,1,0,.576,0v-2.452a.119.119,0,0,1,.12-.12h.408a.288.288,0,1,0,0-.576h-.408a.119.119,0,0,1-.12-.12v-.816a.528.528,0,0,1,1.055,0,.288.288,0,1,0,.576,0,1.106,1.106,0,1,0-2.212,0v.816a.119.119,0,0,1-.12.12Z" transform="translate(-224 -192.4)"/></g><g transform="translate(21.202 3.044)"><path d="M397.208,136.02h2.044a.408.408,0,1,1,0,.816h-.408a.408.408,0,1,0,0,.816h.408a1.226,1.226,0,0,0,0-2.452h-2.044a.41.41,0,0,0,0,.82Z" transform="translate(-396.68 -135.09)"/><path d="M396.872,135.587h-.408a.528.528,0,0,1,0-1.055h.408a.288.288,0,1,0,0-.576h-2.044a.528.528,0,0,1,0-1.055h2.044a1.343,1.343,0,1,1,0,2.687Zm-.413-.82a.288.288,0,1,0,0,.576h.408a1.106,1.106,0,0,0,0-2.212h-2.044a.288.288,0,1,0,0,.576h2.044a.528.528,0,1,1,0,1.055h-.408Z" transform="translate(-394.3 -132.9)"/></g><g transform="translate(22.018 3.855)"><path d="M414.208,152.3a.407.407,0,0,0-.408.408v2.452a.408.408,0,0,0,.816,0v-2.452A.407.407,0,0,0,414.208,152.3Z" transform="translate(-413.68 -152.18)"/><path d="M411.828,153.307a.526.526,0,0,1-.528-.528v-2.452a.528.528,0,1,1,1.055,0v2.452A.526.526,0,0,1,411.828,153.307Zm0-3.267a.289.289,0,0,0-.288.288v2.452a.288.288,0,1,0,.576,0v-2.452A.289.289,0,0,0,411.828,150.04Z" transform="translate(-411.3 -149.8)"/></g><g transform="translate(19.154 1)"><path d="M354.2,96.28a3.677,3.677,0,1,0,3.68-3.68A3.676,3.676,0,0,0,354.2,96.28Zm3.675-2.859a2.859,2.859,0,1,1-2.859,2.859A2.86,2.86,0,0,1,357.875,93.42Z" transform="translate(-354.075 -92.49)"/><path d="M355.4,97.89a3.8,3.8,0,0,1-3.8-3.795h0a3.795,3.795,0,1,1,3.8,3.795Zm-3.555-3.8a3.557,3.557,0,1,0,3.56-3.56,3.561,3.561,0,0,0-3.56,3.56Zm3.555,2.984a2.979,2.979,0,1,1,0-5.959h0a2.979,2.979,0,1,1,0,5.959Zm0-5.724a2.739,2.739,0,1,0,2.739,2.739,2.745,2.745,0,0,0-2.739-2.739Z" transform="translate(-351.6 -90.3)"/></g><g transform="translate(19.154 9.161)"><path d="M357.78,263a3.68,3.68,0,1,0,3.675,3.68A3.68,3.68,0,0,0,357.78,263Zm0,6.539a2.859,2.859,0,1,1,2.859-2.859A2.86,2.86,0,0,1,357.78,269.539Z" transform="translate(-353.98 -262.875)"/><path d="M355.4,268a3.8,3.8,0,0,1,0-7.6h0a3.8,3.8,0,0,1,0,7.6Zm0-7.355a3.56,3.56,0,1,0,3.555,3.56,3.565,3.565,0,0,0-3.555-3.56Zm0,6.539a2.979,2.979,0,1,1,2.979-2.979,2.982,2.982,0,0,1-2.979,2.979Zm0-5.719a2.739,2.739,0,1,0,2.739,2.739A2.742,2.742,0,0,0,355.4,261.465Z" transform="translate(-351.6 -260.4)"/></g><g transform="translate(22.018 10.804)"><path d="M414.367,297.249a.41.41,0,0,0-.667.317v3.267a.407.407,0,0,0,.408.408.413.413,0,0,0,.254-.091l2.044-1.636a.406.406,0,0,0,.062-.576.38.38,0,0,0-.062-.062Zm.154,2.735v-1.569l.979.782Z" transform="translate(-413.585 -297.04)"/><path d="M411.828,298.964a.526.526,0,0,1-.528-.528v-3.267a.554.554,0,0,1,.115-.331.541.541,0,0,1,.355-.2.521.521,0,0,1,.389.115l2.044,1.636a.654.654,0,0,1,.082.082.532.532,0,0,1-.082.744l-2.044,1.636A.582.582,0,0,1,411.828,298.964Zm0-4.088h-.034a.3.3,0,0,0-.192.106.28.28,0,0,0-.062.182v3.267a.289.289,0,0,0,.288.288.309.309,0,0,0,.182-.062l2.044-1.636a.29.29,0,0,0,.043-.408.365.365,0,0,0-.043-.043l-2.044-1.636h0A.305.305,0,0,0,411.828,294.877Zm.408,2.826a.206.206,0,0,1-.053-.01.117.117,0,0,1-.067-.11v-1.569a.131.131,0,0,1,.067-.11.117.117,0,0,1,.125.014l.979.782a.128.128,0,0,1,0,.192l-.974.787A.145.145,0,0,1,412.236,297.7Zm.12-1.439v1.07l.667-.533Z" transform="translate(-411.3 -294.639)"/></g><g transform="translate(3.22 1.398)"><path d="M23.228,107.644h4.088a1.227,1.227,0,0,0,1.228-1.228v-4.088a1.227,1.227,0,0,0-1.228-1.228H23.228A1.227,1.227,0,0,0,22,102.328v4.088A1.231,1.231,0,0,0,23.228,107.644Zm4.083-.82H23.228a.407.407,0,0,1-.408-.408v-2.044h1.3a1.217,1.217,0,0,0,2.3,0h1.3v2.044A.4.4,0,0,1,27.311,106.824Zm-2.452-2.859a.408.408,0,1,1,.408.408A.407.407,0,0,1,24.859,103.964Zm-1.631-2.044h4.088a.407.407,0,0,1,.408.408v1.228h-1.3a1.217,1.217,0,0,0-2.3,0h-1.3v-1.228A.407.407,0,0,1,23.228,101.92Z" transform="translate(-21.88 -100.98)"/><path d="M24.931,105.384H20.848a1.349,1.349,0,0,1-1.348-1.348V99.948A1.349,1.349,0,0,1,20.848,98.6h4.088a1.349,1.349,0,0,1,1.348,1.348v4.088A1.357,1.357,0,0,1,24.931,105.384Zm-4.083-6.539a1.109,1.109,0,0,0-1.108,1.108v4.088a1.109,1.109,0,0,0,1.108,1.108h4.088a1.109,1.109,0,0,0,1.108-1.108V99.953a1.109,1.109,0,0,0-1.108-1.108Zm4.083,5.719H20.848a.526.526,0,0,1-.528-.528v-2.044a.119.119,0,0,1,.12-.12h1.3a.124.124,0,0,1,.115.082,1.1,1.1,0,0,0,.561.629,1.1,1.1,0,0,0,1.516-.629.12.12,0,0,1,.115-.082h1.3a.119.119,0,0,1,.12.12v2.044A.538.538,0,0,1,24.931,104.564Zm-4.371-2.452v1.924a.289.289,0,0,0,.288.288h4.088a.289.289,0,0,0,.288-.288v-1.924h-1.1a1.338,1.338,0,0,1-2.466,0Zm2.332,0a.528.528,0,1,1,.528-.528A.526.526,0,0,1,22.892,102.112Zm0-.816a.288.288,0,1,0,.288.288A.289.289,0,0,0,22.892,101.3Zm2.452,0h-1.3a.124.124,0,0,1-.115-.082,1.1,1.1,0,0,0-1.4-.676,1.089,1.089,0,0,0-.676.676.12.12,0,0,1-.115.082h-1.3a.119.119,0,0,1-.12-.12V99.948a.526.526,0,0,1,.528-.528h4.088a.526.526,0,0,1,.528.528v1.228A.122.122,0,0,1,25.344,101.3Zm-1.219-.24h1.1V99.948a.289.289,0,0,0-.288-.288H20.848a.289.289,0,0,0-.288.288v1.108h1.1a1.331,1.331,0,0,1,.792-.744A1.348,1.348,0,0,1,24.125,101.056Z" transform="translate(-19.5 -98.6)"/></g><g transform="translate(4.453 10.394)"><path d="M50.459,290.739a.408.408,0,0,0,0-.816H49.231v-.816a.408.408,0,0,0-.816,0v.816h-.408a.408.408,0,1,0,0,.816h.408v1.636a1.226,1.226,0,1,0,2.452,0,.408.408,0,0,0-.816,0,.408.408,0,1,1-.816,0v-1.636Z" transform="translate(-47.485 -288.575)"/><path d="M47.359,291.243a1.345,1.345,0,0,1-1.343-1.348v-1.516h-.288a.528.528,0,1,1,0-1.055h.288v-.7a.528.528,0,0,1,1.055,0v.7h1.1a.528.528,0,1,1,0,1.055h-1.1v1.516a.288.288,0,1,0,.576,0,.528.528,0,0,1,1.055,0A1.348,1.348,0,0,1,47.359,291.243Zm-1.636-3.68a.288.288,0,1,0,0,.576h.408a.119.119,0,0,1,.12.12v1.636a1.106,1.106,0,1,0,2.212,0,.288.288,0,0,0-.576,0,.528.528,0,0,1-1.055,0v-1.636a.119.119,0,0,1,.12-.12h1.223a.288.288,0,1,0,0-.576H46.946a.119.119,0,0,1-.12-.12v-.816a.288.288,0,1,0-.576,0v.816a.119.119,0,0,1-.12.12Z" transform="translate(-45.2 -286.1)"/></g><g transform="translate(2.4 9.161)"><path d="M12.355,266.68a3.677,3.677,0,1,0-3.675,3.68A3.68,3.68,0,0,0,12.355,266.68Zm-3.68,2.859a2.859,2.859,0,1,1,2.859-2.859A2.86,2.86,0,0,1,8.675,269.539Z" transform="translate(-4.875 -262.875)"/><path d="M6.2,268a3.8,3.8,0,1,1,3.8-3.8h0A3.808,3.808,0,0,1,6.2,268Zm0-7.355a3.56,3.56,0,1,0,3.56,3.56A3.565,3.565,0,0,0,6.2,260.645Zm3.68,3.56ZM6.2,267.184A2.979,2.979,0,1,1,9.179,264.2,2.982,2.982,0,0,1,6.2,267.184Zm0-5.719A2.739,2.739,0,1,0,8.939,264.2,2.742,2.742,0,0,0,6.2,261.465Z" transform="translate(-2.4 -260.4)"/></g></g></svg>