<svg xmlns="http://www.w3.org/2000/svg" width="28.368" height="28.368" viewBox="0 0 28.368 28.368">
  <path id="Path_266" data-name="Path 266" d="M26.092,18.62a16.106,16.106,0,0,1-5.058-.806,2.312,2.312,0,0,0-2.249.474L15.6,20.7A17.627,17.627,0,0,1,7.67,12.773l2.337-3.107a2.293,2.293,0,0,0,.564-2.323,16.131,16.131,0,0,1-.809-5.067A2.279,2.279,0,0,0,7.486,0H2.276A2.279,2.279,0,0,0,0,2.276,26.121,26.121,0,0,0,26.092,28.368a2.279,2.279,0,0,0,2.276-2.276V20.9A2.279,2.279,0,0,0,26.092,18.62Z"/>
</svg>
