<svg xmlns="http://www.w3.org/2000/svg" width="19.107" height="24.756" viewBox="0 0 19.107 24.756"><g transform="translate(-61 -3.4)"><g transform="translate(61 3.4)"><g transform="translate(0 0)"><path d="M67.444,30.406a.567.567,0,0,1-.563-.563V28.716H65.754a.567.567,0,0,1-.563-.563V27.026H64.063a.567.567,0,0,1-.563-.563v-20a.563.563,0,0,1,.563-.563H78.418a.567.567,0,0,1,.563.563V7.59h1.127a.567.567,0,0,1,.563.563V9.28H81.8a.544.544,0,0,1,.4.167.56.56,0,0,1,.167.4v20a.567.567,0,0,1-.563.563H67.444Zm13.791-1.127V10.4h-.563v17.75a.567.567,0,0,1-.563.563h-12.1v.563H81.235Zm-1.69-1.69V8.717h-.563v17.75a.567.567,0,0,1-.563.563h-12.1v.563ZM77.855,25.9V7.027H64.627V25.9H77.855Z" transform="translate(-63.378 -5.778)"/><path d="M76.041,3.645a.439.439,0,0,1,.441.441V5.335h1.249a.439.439,0,0,1,.441.441V7.025h1.249a.439.439,0,0,1,.441.441v20a.439.439,0,0,1-.441.441H65.066a.439.439,0,0,1-.441-.441V26.221H63.376a.439.439,0,0,1-.441-.441V24.53H61.686a.439.439,0,0,1-.441-.441v-20a.439.439,0,0,1,.441-.441H76.041m-13.914,20H75.6V4.527H62.127V23.649m1.69,1.685H77.29V6.217h-.808V24.09a.439.439,0,0,1-.441.441H63.817v.8h0m1.69,1.69H78.98V7.9h-.808V25.775a.439.439,0,0,1-.441.441H65.507v.808M76.041,3.4H61.686A.688.688,0,0,0,61,4.086v20a.688.688,0,0,0,.686.686h1v1a.688.688,0,0,0,.686.686h1v1a.688.688,0,0,0,.686.686H79.421a.688.688,0,0,0,.686-.686V7.461a.686.686,0,0,0-.686-.686h-1v-1a.688.688,0,0,0-.686-.686h-1v-1a.685.685,0,0,0-.686-.686ZM62.372,4.772H75.355V23.4H62.372V4.772Zm14.355,1.69h.318V25.094H64.062v-.318H76.041a.688.688,0,0,0,.686-.686V6.462Zm1.69,1.685h.318V26.779H65.752v-.318H77.731a.688.688,0,0,0,.686-.686V8.147Z" transform="translate(-61 -3.4)"/></g></g><g transform="translate(65.762 7.927)"><g transform="translate(0 0)"><path d="M161.263,99.427a.563.563,0,0,1,0-1.127h4.831a.563.563,0,1,1,0,1.127Z" transform="translate(-160.578 -98.178)"/><path d="M163.717,96.045a.441.441,0,0,1,0,.882h-4.831a.441.441,0,0,1,0-.882h4.831m0-.245h-4.831a.686.686,0,0,0,0,1.372h4.831a.686.686,0,1,0,0-1.372Z" transform="translate(-158.2 -95.8)"/></g></g><g transform="translate(63.768 10.117)"><path d="M120.563,144.127a.563.563,0,1,1,0-1.127h8.824a.563.563,0,1,1,0,1.127Z" transform="translate(-119.878 -142.878)"/><path d="M127.009,140.745a.441.441,0,0,1,0,.882h-8.824a.441.441,0,1,1,0-.882h8.824m0-.245h-8.824a.686.686,0,1,0,0,1.372h8.824a.686.686,0,0,0,0-1.372Z" transform="translate(-117.5 -140.5)"/></g><g transform="translate(63.768 12.307)"><g transform="translate(0 0)"><path d="M120.563,188.827a.563.563,0,1,1,0-1.127h8.824a.563.563,0,1,1,0,1.127Z" transform="translate(-119.878 -187.578)"/><path d="M127.009,185.445a.441.441,0,0,1,0,.882h-8.824a.441.441,0,1,1,0-.882h8.824m0-.245h-8.824a.686.686,0,1,0,0,1.372h8.824a.686.686,0,0,0,0-1.372Z" transform="translate(-117.5 -185.2)"/></g></g><g transform="translate(63.768 14.492)"><path d="M120.563,233.527a.563.563,0,0,1,0-1.127h8.824a.563.563,0,0,1,0,1.127Z" transform="translate(-119.878 -232.273)"/><path d="M127.009,230.045a.441.441,0,0,1,0,.882h-8.824a.441.441,0,0,1,0-.882h8.824m0-.245h-8.824a.686.686,0,1,0,0,1.372h8.824a.686.686,0,0,0,0-1.372Z" transform="translate(-117.5 -229.8)"/></g><g transform="translate(63.768 16.682)"><path d="M120.563,278.127a.563.563,0,1,1,0-1.127h8.824a.563.563,0,1,1,0,1.127Z" transform="translate(-119.878 -276.878)"/><path d="M127.009,274.745a.441.441,0,0,1,0,.882h-8.824a.441.441,0,1,1,0-.882h8.824m0-.245h-8.824a.686.686,0,1,0,0,1.372h8.824a.686.686,0,0,0,0-1.372Z" transform="translate(-117.5 -274.5)"/></g><g transform="translate(63.768 18.872)"><path d="M120.563,322.827a.563.563,0,0,1,0-1.127h8.824a.563.563,0,0,1,0,1.127Z" transform="translate(-119.878 -321.578)"/><path d="M127.009,319.445a.441.441,0,0,1,0,.882h-8.824a.441.441,0,1,1,0-.882h8.824m0-.245h-8.824a.686.686,0,1,0,0,1.372h8.824a.686.686,0,0,0,0-1.372Z" transform="translate(-117.5 -319.2)"/></g></g></svg>