<svg xmlns="http://www.w3.org/2000/svg" width="14.943" height="25.283" viewBox="0 0 14.943 25.283">
  <g id="bookmark" transform="translate(0)">
    <g id="bookmark-2" data-name="bookmark" transform="translate(0 0)">
      <g id="Group_157" data-name="Group 157" transform="translate(0)">
        <g id="Group_156" data-name="Group 156">
          <path id="Path_391" data-name="Path 391" d="M87.513,30.5a1.673,1.673,0,0,1-.663-.134,3.059,3.059,0,0,1-1.429-1.3l-3.328-5.308-3.328,5.308a3.059,3.059,0,0,1-1.429,1.3,1.7,1.7,0,0,1-.663.134,1.743,1.743,0,0,1-1.377-.67,2.394,2.394,0,0,1-.5-1.489V8.057A2.466,2.466,0,0,1,77.254,5.6h0a.265.265,0,0,1,.074.015H86.91a2.466,2.466,0,0,1,2.457,2.442v20.28a2.4,2.4,0,0,1-.484,1.489,1.7,1.7,0,0,1-1.37.677ZM76.606,28.97c.015,0,.037.007.052.007a.238.238,0,0,0,.1-.022,1.53,1.53,0,0,0,.685-.67c0-.007.007-.007.007-.015l3.976-6.328a.756.756,0,0,1,.648-.365.794.794,0,0,1,.387.1.869.869,0,0,1,.261.261L86.7,28.27l.007.007a1.568,1.568,0,0,0,.692.663.263.263,0,0,0,.1.022.127.127,0,0,0,.052-.007.206.206,0,0,0,.119-.089.843.843,0,0,0,.156-.536V8.035a.938.938,0,0,0-.916-.931H77.269a.944.944,0,0,0-.938.938v20.3a.856.856,0,0,0,.156.536A.191.191,0,0,0,76.606,28.97Z" transform="translate(-74.618 -5.406)"/>
          <path id="Path_392" data-name="Path 392" d="M75.04,3.372v.015H84.7a2.235,2.235,0,0,1,1.6.67,2.276,2.276,0,0,1,.67,1.586V25.931a2.182,2.182,0,0,1-.447,1.377,1.566,1.566,0,0,1-1.228.6,1.458,1.458,0,0,1-.588-.119,2.81,2.81,0,0,1-1.34-1.221L79.88,21.009,76.4,26.571a2.881,2.881,0,0,1-1.34,1.221,1.617,1.617,0,0,1-.588.112,1.555,1.555,0,0,1-1.228-.6,2.146,2.146,0,0,1-.454-1.377V5.643a2.235,2.235,0,0,1,.67-1.6,2.177,2.177,0,0,1,1.586-.67m-.6,23.385a.479.479,0,0,0,.179-.037,1.759,1.759,0,0,0,.774-.752l3.976-6.328a.564.564,0,0,1,.484-.275.591.591,0,0,1,.29.082.484.484,0,0,1,.194.194l3.976,6.336a1.8,1.8,0,0,0,.782.744.518.518,0,0,0,.186.037.492.492,0,0,0,.1-.007.472.472,0,0,0,.223-.156,1.092,1.092,0,0,0,.194-.655V5.643a1.117,1.117,0,0,0-1.1-1.117H75.033A1.138,1.138,0,0,0,73.909,5.65v20.28a1.091,1.091,0,0,0,.194.655.472.472,0,0,0,.223.156.309.309,0,0,0,.112.015M75.04,3h0A2.644,2.644,0,0,0,72.4,5.636v20.3a2.568,2.568,0,0,0,.536,1.608,1.941,1.941,0,0,0,2.256.6.007.007,0,0,0,.007-.007,3.251,3.251,0,0,0,1.511-1.37l3.164-5.048,3.164,5.048a3.251,3.251,0,0,0,1.511,1.37h.007a1.9,1.9,0,0,0,.73.141,1.937,1.937,0,0,0,1.526-.744,2.606,2.606,0,0,0,.529-1.608V5.636A2.657,2.657,0,0,0,84.7,3.015H75.145A.44.44,0,0,0,75.04,3Zm.007,1.891H84.7a.749.749,0,0,1,.73.744v20.31a.684.684,0,0,1-.119.417c-.007.007-.015.015-.022.015h-.007c-.015,0-.022,0-.03-.007a1.339,1.339,0,0,1-.6-.581c0-.007-.007-.015-.015-.022l-3.976-6.328a.941.941,0,0,0-.32-.32.93.93,0,0,0-.484-.134.94.94,0,0,0-.8.454L75.07,25.759c-.007.007-.007.015-.015.022a1.377,1.377,0,0,1-.6.588c-.007,0-.022.007-.03.007h-.007c-.007-.007-.015-.007-.022-.015a.684.684,0,0,1-.119-.417V5.65a.784.784,0,0,1,.767-.759Z" transform="translate(-72.397 -3)"/>
        </g>
      </g>
    </g>
  </g>
</svg>
